# xmcd
#
# Track frame offsets:
#	150
#	13645
#	27547
#	39872
#	51512
#	63862
#	77422
#	90337
#
# Disc length: 1377 seconds
#
# Revision: 1
# Processed by: cddbd v1.5.1PL0 Copyright (c) Steve Scherf et al.
# Submitted via: audiograbber 1.83.01
#
DISCID=54055f08
DTITLE=Roy Brown - Greatest Hits
DYEAR=1994
DGENRE=Blues
TTITLE0=Good Rockin' Tonight
TTITLE1=Long About Midnight
TTITLE2=Love Don't Love Nobody
TTITLE3=Old Age Boogie
TTITLE4=Rockin' At Midnight
TTITLE5=Hard Luck Blues
TTITLE6=Boogie At Midnight
TTITLE7=Miss Fanny Brown
EXTD=
EXTT0=
EXTT1=
EXTT2=
EXTT3=
EXTT4=
EXTT5=
EXTT6=
EXTT7=
PLAYORDER=
